G04 ================== begin FILE IDENTIFICATION RECORD ==================*
G04 Layout Name:  wee.brd*
G04 Film Name:    BOTTOM*
G04 File Format:  Gerber RS274X*
G04 File Origin:  Cadence Allegro 16.5-S056*
G04 Origin Date:  Tue Dec 16 20:41:55 2014*
G04 *
G04 Layer:  VIA CLASS/BOTTOM*
G04 Layer:  PIN/BOTTOM*
G04 Layer:  ETCH/BOTTOM*
G04 *
G04 Offset:    (0.0 0.0)*
G04 Mirror:    No*
G04 Mode:      Positive*
G04 Rotation:  0*
G04 FullContactRelief:  No*
G04 UndefLineWidth:     0.0*
G04 ================== end FILE IDENTIFICATION RECORD ====================*
%FSLAX25Y25*MOIN*%
%IR0*IPPOS*OFA0.00000B0.00000*MIA0B0*SFA1.00000B1.00000*%
%ADD17R,.1X.1*%
%AMMACRO18*
4,1,40,-.002,.0157,
.002,.0157,
.00268,.015637,
.003339,.015457,
.003957,.015165,
.004515,.014771,
.004995,.014285,
.005385,.013724,
.00567,.013103,
.005844,.012443,
.0059,.0118,
.0059,-.0118,
.005837,-.01248,
.005657,-.013139,
.005365,-.013757,
.004971,-.014315,
.004485,-.014795,
.003924,-.015185,
.003303,-.01547,
.002643,-.015644,
.002,-.0157,
-.002,-.0157,
-.00268,-.015637,
-.003339,-.015457,
-.003957,-.015165,
-.004515,-.014771,
-.004995,-.014285,
-.005385,-.013724,
-.00567,-.013103,
-.005844,-.012443,
-.0059,-.0118,
-.0059,.0118,
-.005837,.01248,
-.005657,.013139,
-.005365,.013757,
-.004971,.014315,
-.004485,.014795,
-.003924,.015185,
-.003303,.01547,
-.002643,.015644,
-.002,.0157,
0.0*
%
%ADD18MACRO18*%
%ADD16R,.0551X.0512*%
%ADD14C,.0236*%
%ADD19O,.024X.0728*%
%ADD11C,.0492*%
%ADD20C,.0197*%
%ADD10R,.0453X.0709*%
%ADD12R,.0374X.0394*%
%ADD13R,.0394X.0374*%
%AMMACRO15*
4,1,40,.0157,.002,
.0157,-.002,
.015637,-.00268,
.015457,-.003339,
.015165,-.003957,
.014771,-.004515,
.014285,-.004995,
.013724,-.005385,
.013103,-.00567,
.012443,-.005844,
.0118,-.0059,
-.0118,-.0059,
-.01248,-.005837,
-.013139,-.005657,
-.013757,-.005365,
-.014315,-.004971,
-.014795,-.004485,
-.015185,-.003924,
-.01547,-.003303,
-.015644,-.002643,
-.0157,-.002,
-.0157,.002,
-.015637,.00268,
-.015457,.003339,
-.015165,.003957,
-.014771,.004515,
-.014285,.004995,
-.013724,.005385,
-.013103,.00567,
-.012443,.005844,
-.0118,.0059,
.0118,.0059,
.01248,.005837,
.013139,.005657,
.013757,.005365,
.014315,.004971,
.014795,.004485,
.015185,.003924,
.01547,.003303,
.015644,.002643,
.0157,.002,
0.0*
%
%ADD15MACRO15*%
%ADD21C,.006*%
%ADD22C,.008*%
%ADD23C,.01*%
%ADD24C,.012*%
%ADD25C,.04*%
%ADD26C,.0656*%
%ADD28C,.0596*%
%ADD29R,.0476X.0496*%
%ADD27R,.0496X.0476*%
G75*
%LPD*%
G75*
G36*
G01X18010Y10D02*
Y45190D01*
X21850D01*
G03X22250Y45220I-10J2809D01*
G01X24530D01*
Y47150D01*
X24540Y47180D01*
G03Y48820I-2690J820D01*
G01X24530Y48850D01*
Y50780D01*
X22250D01*
G03X21850Y50810I-410J-2779D01*
G01X18010D01*
Y93990D01*
X102990D01*
Y31740D01*
G02X102260Y31520I-399J2D01*
G03X100630Y32400I-1658J-1121D01*
G02X100430Y32600I0J200D01*
G01Y33180D01*
X95070D01*
Y27620D01*
X100430D01*
Y28200D01*
G02X100630Y28400I200J0D01*
G03X102260Y29280I-28J2001D01*
G02X102990Y29060I331J-222D01*
G01Y25140D01*
G02X102260Y24920I-399J2D01*
G03X100630Y25800I-1658J-1121D01*
G02X100430Y26000I0J200D01*
G01Y26580D01*
X95070D01*
Y21020D01*
X100430D01*
Y21600D01*
G02X100630Y21800I200J0D01*
G03X102260Y22680I-28J2001D01*
G02X102990Y22460I331J-222D01*
G01Y18540D01*
G02X102260Y18320I-399J2D01*
G03X100630Y19200I-1658J-1121D01*
G02X100430Y19400I0J200D01*
G01Y19980D01*
X95070D01*
Y14420D01*
X100430D01*
Y15000D01*
G02X100630Y15200I200J0D01*
G03X102260Y16080I-28J2001D01*
G02X102990Y15860I331J-222D01*
G01Y10D01*
X18010D01*
G37*
%LPC*%
G75*
G36*
G01X30670Y4780D02*
G02X24470I-3100J-1080D01*
G01X24520Y4900D01*
X24140Y5280D01*
Y10420D01*
X22770D01*
Y14030D01*
X20090Y16710D01*
Y34790D01*
X23130Y37840D01*
G03X22850Y38520I-282J282D01*
G01X19470D01*
Y43480D01*
X24230D01*
Y39900D01*
G03X24910Y39620I398J2D01*
G01X25470Y40170D01*
Y43780D01*
X29080D01*
X29830Y44540D01*
G03X29550Y45220I-282J282D01*
G01X25470D01*
Y50780D01*
X29550D01*
G03X29830Y51460I-2J398D01*
G01X29080Y52220D01*
X25470D01*
Y56530D01*
X24910Y57080D01*
G03X24230Y56800I-282J-282D01*
G01Y52520D01*
X19470D01*
Y57480D01*
X23550D01*
G03X23830Y58160I-2J398D01*
G01X22780Y59220D01*
X19170D01*
Y64780D01*
X24530D01*
Y61170D01*
X24790Y60920D01*
G03X25470Y61200I282J282D01*
G01Y64780D01*
X30830D01*
Y61170D01*
X32770Y59230D01*
X37380D01*
G03X37780Y59650I1J400D01*
G01Y60090D01*
G02X38980Y61290I1202J-2D01*
G01X41340D01*
G02X41500Y61280I5J-1202D01*
G03X41720Y61500I22J198D01*
G02X41710Y61660I1192J155D01*
G01Y64020D01*
G02X42000Y64800I1202J-3D01*
G01Y65630D01*
X32090Y75540D01*
Y80340D01*
X30190Y82240D01*
X30090Y82220D01*
G02X29310Y86140I-297J1979D01*
G03X29500Y86810I-93J388D01*
G01X28970Y87340D01*
X28850Y87290D01*
G02X30590Y89030I-1280J3020D01*
G01X30540Y88910D01*
X37110Y82340D01*
Y76260D01*
X42540Y70830D01*
G03X43220Y71120I280J286D01*
G01Y71990D01*
X43010Y72200D01*
X42930D01*
G02X44490Y75530I68J1998D01*
G01X48890D01*
Y82340D01*
X48340Y82890D01*
X41290D01*
X36840Y87340D01*
X36720Y87290D01*
G02X38460Y89030I-1280J3020D01*
G01X38410Y88910D01*
X42210Y85110D01*
X49240D01*
G03X49380Y85450I-3J200D01*
G01X49190Y85640D01*
X46420D01*
X44720Y87340D01*
X44600Y87290D01*
G02X46340Y89030I-1280J3020D01*
G01X46290Y88910D01*
X47340Y87860D01*
X48130D01*
G03X48470Y88480I5J400D01*
G02X52910Y87520I2720J1831D01*
G03X53130Y86780I213J-339D01*
G01X56530D01*
Y81630D01*
X57770D01*
Y86480D01*
X62530D01*
Y81520D01*
X59380D01*
Y80800D01*
G02Y76800I20J-2000D01*
G01Y76270D01*
X53910D01*
Y75330D01*
X59380D01*
Y73760D01*
X65590D01*
X66490Y74660D01*
Y83560D01*
X71840Y88910D01*
X71790Y89030D01*
G02X73530Y87290I3020J1280D01*
G01X73410Y87340D01*
X68710Y82640D01*
Y73740D01*
X66510Y71540D01*
X59380D01*
Y69970D01*
X55770D01*
X55650Y69850D01*
G03X55800Y69510I145J-139D01*
G01X64740D01*
G02Y67290I1660J-1110D01*
G01X56460D01*
X56110Y66940D01*
Y65610D01*
G03X56560Y65210I401J-2D01*
G02X56690Y65220I157J-1190D01*
G01X57090D01*
G02X58290Y64020I-2J-1202D01*
G01Y61660D01*
G02X58280Y61530I-1200J27D01*
G01Y61310D01*
X60270D01*
X60290Y61290D01*
X61020D01*
G02X62220Y60090I-2J-1202D01*
G01Y59690D01*
G02X62200Y59500I-1199J30D01*
G03X62600Y59030I396J-68D01*
G01X80260D01*
X81690Y60460D01*
Y67880D01*
X81960Y68150D01*
G03X81820Y68490I-143J140D01*
G01X81670D01*
X81610Y68410D01*
G02X78680Y68090I-1612J1188D01*
G03X78160I-260J-296D01*
G02X77080Y71590I-1316J1511D01*
G01X77170Y71570D01*
X78490Y72890D01*
Y72980D01*
Y77920D01*
G02X82510I2010J0D01*
G01Y73040D01*
G02X82500Y72870I-2008J33D01*
G03X83180Y72550I400J-34D01*
G01X83500Y72870D01*
X83490Y72950D01*
Y77920D01*
G02X87510I2010J0D01*
G01Y73040D01*
G02X87350Y72260I-2009J6D01*
G03X87720Y71710I372J-149D01*
G01X88280D01*
G03X88650Y72260I-2J401D01*
G02X88490Y73040I1849J786D01*
G01Y77920D01*
G02X92510I2010J0D01*
G01Y73040D01*
G02X91310Y71200I-2011J0D01*
G01Y70740D01*
X90060Y69490D01*
X86440D01*
X83910Y66960D01*
Y59540D01*
X82110Y57740D01*
G03X82400Y57060I286J-280D01*
G01X84910D01*
X86510Y55460D01*
Y52700D01*
G02X87510Y50960I-1014J-1740D01*
G01Y46080D01*
G02X87150Y44940I-2008J7D01*
G03X87480Y44310I330J-228D01*
G01X88940D01*
X89180Y44550D01*
X89050Y44690D01*
G02X88490Y46080I1445J1390D01*
G01Y50960D01*
G02X92510I2010J0D01*
G01Y46080D01*
G02X91710Y44470I-2020J0D01*
G01Y43940D01*
X89860Y42090D01*
X76940D01*
X71390Y47640D01*
G03X70730Y47460I-276J-287D01*
G02X67090Y46970I-1926J540D01*
G01X62600D01*
G03X62200Y46500I-4J-402D01*
G02X62220Y46310I-1179J-220D01*
G01Y45910D01*
G02X61020Y44710I-1202J2D01*
G01X58660D01*
G02X58500Y44720I-5J1202D01*
G03X58280Y44500I-22J-198D01*
G02X58290Y44340I-1192J-155D01*
G01Y41980D01*
G02X58000Y41200I-1202J3D01*
G01Y39970D01*
X60460Y37510D01*
X77660D01*
X82810Y32360D01*
X82910Y32380D01*
G02X81220Y30690I290J-1980D01*
G01X81240Y30790D01*
X81050Y30980D01*
G03X80710Y30840I-140J-143D01*
G01Y25460D01*
G02X78860Y21940I-1113J-1661D01*
G03X78310Y21570I-151J-370D01*
G01Y19260D01*
X79260Y18310D01*
X88770D01*
Y19980D01*
X90140D01*
Y21020D01*
X88770D01*
Y26580D01*
X90140D01*
Y27620D01*
X88770D01*
Y33180D01*
X90140D01*
Y37990D01*
X95550Y43400D01*
G03X95300Y44080I-286J281D01*
G02X93490Y46080I200J2000D01*
G01Y50960D01*
G02X93960Y52250I2005J0D01*
G02X96500Y55190I1637J1153D01*
G02X97160Y55070I-94J-2390D01*
G03X97690Y55440I131J376D01*
G01Y60660D01*
X96110Y62240D01*
X96040Y62250D01*
G02X94180Y65480I363J2359D01*
G01X94190Y65520D01*
Y71520D01*
G02X93490Y73040I1300J1520D01*
G01Y77920D01*
G02X94190Y79440I2000J0D01*
G01Y80110D01*
X93080Y81220D01*
X89470D01*
Y86780D01*
X89750D01*
Y87130D01*
X89610Y87170D01*
G02X92280Y87520I946J3140D01*
G03X92500Y86780I213J-339D01*
G01X94830D01*
Y83170D01*
X96810Y81190D01*
Y79440D01*
G02X97510Y77920I-1300J-1520D01*
G01Y73040D01*
G02X96810Y71520I-2000J0D01*
G01Y66970D01*
X96960Y66930D01*
G02X98590Y63650I-559J-2323D01*
G01X98530Y63520D01*
X100310Y61740D01*
Y44460D01*
X92760Y36910D01*
Y33180D01*
X94130D01*
Y27620D01*
X92760D01*
Y26580D01*
X94130D01*
Y21020D01*
X92760D01*
Y19980D01*
X94130D01*
Y14420D01*
X92910D01*
Y13310D01*
G02X90290I-1310J-1510D01*
G01Y14420D01*
X88770D01*
Y16090D01*
X78340D01*
X76640Y17790D01*
G03X75960Y17500I-280J-286D01*
G01Y10500D01*
G02X76120Y8900I-950J-903D01*
G01Y6710D01*
G02X73500I-1310J-3010D01*
G01Y9260D01*
X73340Y9420D01*
Y21170D01*
X68220D01*
Y26530D01*
X73780D01*
Y26200D01*
G03X74260Y25810I400J2D01*
G02X75520Y25650I391J-1961D01*
G03X76090Y26010I170J362D01*
G01Y27740D01*
X74790Y29040D01*
X73780D01*
Y27470D01*
X68220D01*
Y32830D01*
X73780D01*
Y31260D01*
X75710D01*
X77810Y29160D01*
G03X78490Y29450I280J286D01*
G01Y30540D01*
X75540Y33490D01*
X61250D01*
Y27730D01*
X56130D01*
G03X55840Y27050I-4J-400D01*
G01X56320Y26570D01*
X61550D01*
Y25060D01*
X62220D01*
Y26530D01*
X67780D01*
Y21170D01*
X62220D01*
Y22640D01*
X61550D01*
Y19830D01*
X55310D01*
G03X55020Y19150I-4J-400D01*
G01X60110Y14060D01*
Y6810D01*
G02X57890Y6760I-1041J-3110D01*
G01Y13140D01*
X53340Y17690D01*
X45630D01*
G03X45260Y17140I0J-399D01*
G02X44510Y14740I-1859J-736D01*
G01Y6760D01*
G02X40150Y4530I-1186J-3058D01*
G03X39700Y5020I-388J95D01*
G02X39070Y5030I-284J1980D01*
G03X38610Y4530I-72J-395D01*
G02X32800Y5650I-3173J-830D01*
G03X32480Y6290I-318J241D01*
G01X32010D01*
X30620Y4900D01*
X30670Y4780D01*
G37*
G54D26*
X66940Y3700D03*
X51190D03*
X59070Y90310D03*
X66940D03*
X90560Y3700D03*
X82690D03*
Y90310D03*
X98440D03*
G54D28*
Y3700D03*
G54D29*
X85850Y84000D03*
G54D27*
X65000Y30150D03*
X46000Y79150D03*
%LPD*%
G75*
G36*
G01X25460Y19910D02*
X24510Y20860D01*
Y31740D01*
X25540Y32770D01*
G02X26220Y32480I280J-286D01*
G01Y27470D01*
X31780D01*
Y31220D01*
X31880Y31320D01*
G02X32220Y31180I140J-144D01*
G01Y27470D01*
X37780D01*
Y31220D01*
X37880Y31320D01*
G02X38220Y31180I140J-144D01*
G01Y27470D01*
X43780D01*
Y28940D01*
X44450D01*
Y27430D01*
X51590D01*
Y27540D01*
X51830Y27640D01*
X54410Y25050D01*
Y19910D01*
X51290D01*
Y26270D01*
X44750D01*
Y19910D01*
X25460D01*
G37*
G36*
G01X23390Y18840D02*
X24540Y17690D01*
X41170D01*
G02X41540Y17140I0J-399D01*
G03X42290Y14740I1859J-736D01*
G01Y6810D01*
G03X41960Y6690I954J-3138D01*
G02X41400Y7040I-162J363D01*
G03X38840Y8920I-2000J-40D01*
G01X38810Y8910D01*
X30930D01*
X28770Y6750D01*
X28650Y6800D01*
G03X27200Y6960I-1076J-3100D01*
G02X26760Y7360I-40J398D01*
G01Y10420D01*
X28130D01*
Y15980D01*
X24520D01*
X22710Y17790D01*
Y18550D01*
G02X23390Y18840I400J4D01*
G37*
G36*
G01X77860Y44310D02*
X73030Y49140D01*
G02X73260Y49820I284J283D01*
G03X74960Y51420I-261J1981D01*
G02X75560Y51690I394J-73D01*
G03X78400Y54270I1039J1709D01*
G02X78760Y54840I362J170D01*
G01X83990D01*
X84290Y54540D01*
Y52570D01*
G03X83490Y50960I1220J-1610D01*
G01Y46080D01*
G03X83850Y44940I2008J7D01*
G02X83520Y44310I-330J-228D01*
G01X82110D01*
G02X81800Y44970I-6J400D01*
G03X82210Y46080I-1298J1110D01*
G01Y50960D01*
G03X78790I-1710J0D01*
G01Y46080D01*
G03X79200Y44970I1708J0D01*
G02X78890Y44310I-304J-260D01*
G01X77860D01*
G37*
%LPC*%
G75*
G54D29*
X31750Y13200D03*
G54D27*
X29000Y23850D03*
X41000D03*
X35000D03*
%LPD*%
G75*
G54D10*
X3090Y48000D03*
X14910D03*
G54D20*
X96400Y52800D03*
Y64610D03*
G54D11*
X43320Y3700D03*
X35440D03*
X27570D03*
Y90310D03*
X35440D03*
X43320D03*
X66940Y3700D03*
X59070D03*
X51190D03*
Y90310D03*
X59070D03*
X66940D03*
X98440Y3700D03*
X90560D03*
X82690D03*
X74810D03*
Y90310D03*
X82690D03*
X90560D03*
X98440D03*
G54D21*
G01X35000Y21270D02*
Y23850D01*
G01D02*
Y26430D01*
G01X32320Y23850D02*
X35000D01*
G01D02*
X37680D01*
G01X41000Y21270D02*
Y23850D01*
G01D02*
Y26430D01*
G01X38320Y23850D02*
X41000D01*
G01D02*
X43680D01*
G01X29000Y21270D02*
Y23850D01*
G01D02*
Y26430D01*
G01X26320Y23850D02*
X29000D01*
G01D02*
X31680D01*
G01X31750Y10520D02*
Y13200D01*
G01D02*
Y15880D01*
G01X29170Y13200D02*
X31750D01*
G01D02*
X34330D01*
G01X43110Y43160D02*
Y40910D01*
X42800Y40600D01*
X36000D01*
X32400Y37000D01*
X28200D01*
X23400Y32200D01*
Y20400D01*
X25000Y18800D01*
X53800D01*
X59000Y13600D01*
Y3770D01*
X59070Y3700D01*
G01X21850Y52320D02*
Y55000D01*
G01D02*
Y57680D01*
G01X19270Y55000D02*
X21850D01*
G01D02*
X24430D01*
G01X21850Y38320D02*
Y41000D01*
G01D02*
Y43680D01*
G01X19270Y41000D02*
X21850D01*
G01D02*
X24430D01*
G01X45080Y62840D02*
Y66720D01*
X36000Y75800D01*
Y81880D01*
X27570Y90310D01*
G01X49020Y62840D02*
Y70620D01*
X50000Y71600D01*
Y82800D01*
X48800Y84000D01*
X41750D01*
X35440Y90310D01*
G01D02*
X35400Y90270D01*
G01X29800Y84200D02*
X33200Y80800D01*
Y76000D01*
X43110Y66090D01*
Y62840D01*
G01X65000Y27570D02*
Y30150D01*
G01D02*
Y32730D01*
G01X62320Y30150D02*
X65000D01*
G01D02*
X67680D01*
G01X57980Y27530D02*
Y30800D01*
G01D02*
X61450D01*
G01X48020Y23200D02*
Y26470D01*
G01X44550Y23200D02*
X48020D01*
G01D02*
X51490D01*
G01X71000Y23850D02*
X74650D01*
G01X43320Y3700D02*
X43400Y3780D01*
Y16400D01*
G01X91450Y17200D02*
X78800D01*
X77200Y18800D01*
Y28200D01*
X75250Y30150D01*
X71000D01*
G01X59840Y52020D02*
X72780D01*
X73000Y51800D01*
G01X59840Y53980D02*
X71780D01*
X72000Y54200D01*
X74000D01*
X74220Y53980D01*
X76020D01*
X76600Y53400D01*
G01X59840Y50050D02*
X67450D01*
X67800Y50400D01*
X69800D01*
X70150Y50050D01*
X70550D01*
X77400Y43200D01*
X89400D01*
X90600Y44400D01*
Y48420D01*
X90500Y48520D01*
G01X59840Y48080D02*
X68720D01*
X68800Y48000D01*
G01X90500Y75480D02*
X90200Y75180D01*
Y71200D01*
X89600Y70600D01*
X85980D01*
X82800Y67420D01*
Y60000D01*
X80720Y57920D01*
X59840D01*
G01Y55950D02*
X84450D01*
X85400Y55000D01*
Y48620D01*
X85500Y48520D01*
G01X83200Y30400D02*
X77200Y36400D01*
X60000D01*
X56890Y39510D01*
Y43160D01*
G01X79600Y23800D02*
Y31000D01*
X76000Y34600D01*
X57400D01*
X54920Y37080D01*
Y43160D01*
G01X46000Y76570D02*
Y79150D01*
G01D02*
Y81730D01*
G01X43320Y79150D02*
X46000D01*
G01X60150Y81320D02*
Y84000D01*
G01D02*
Y86680D01*
G01X57570Y84000D02*
X60150D01*
G01D02*
X62730D01*
G01X54920Y62840D02*
X55000Y62920D01*
Y67400D01*
X56000Y68400D01*
X66400D01*
G01X50980Y62840D02*
Y70380D01*
X52800Y72200D01*
Y82950D01*
G01D02*
X53850Y84000D01*
G01X52800Y82950D02*
Y83600D01*
X49650Y86750D01*
X46880D01*
X43320Y90310D01*
G01X74810D02*
X67600Y83100D01*
Y74200D01*
X66050Y72650D01*
X56600D01*
G01X98440Y530D02*
Y3700D01*
G01D02*
Y6870D01*
G01X95270Y3700D02*
X98440D01*
G01D02*
X101610D01*
G01X100600Y17200D02*
X97750D01*
G01X100600Y30400D02*
X97750D01*
G01Y23800D02*
X100600D01*
G01X80500Y48520D02*
Y52870D01*
G01X78590Y48520D02*
X80500D01*
G01D02*
X82410D01*
G01X95500D02*
X95600Y48620D01*
Y53400D01*
G01X85850Y81320D02*
Y84000D01*
G01D02*
Y86680D01*
G01X83270Y84000D02*
X85850D01*
G01D02*
X88430D01*
G01X80000Y69600D02*
X81800D01*
X85500Y73300D01*
Y75480D01*
G01X80500D02*
Y73330D01*
X77720Y70550D01*
Y70480D01*
X76840Y69600D01*
G54D12*
X25450Y13200D03*
X31750D03*
X28150Y41000D03*
X21850D03*
Y62000D03*
X28150D03*
X21850Y48000D03*
X28150D03*
Y55000D03*
X21850D03*
X53850Y84000D03*
X60150D03*
X97750Y23800D03*
X91450D03*
X97750Y30400D03*
X91450D03*
X97750Y17200D03*
X91450D03*
X92150Y84000D03*
X85850D03*
G54D22*
G01X41000Y30150D02*
X47370D01*
X48020Y30800D01*
G01X29000Y30150D02*
X37250Y38400D01*
X44200D01*
X45080Y39280D01*
Y43160D01*
G01X35000Y30150D02*
X41450Y36600D01*
X44800D01*
X46800Y38600D01*
Y39800D01*
X47050Y40050D01*
G01X65000Y23850D02*
X58630D01*
X57980Y23200D01*
G01X52950Y43160D02*
Y28230D01*
X57980Y23200D01*
G01X50980Y43160D02*
Y33760D01*
X48020Y30800D01*
G01X47050Y40050D02*
X47250Y39850D01*
X48450D01*
X49020Y40420D01*
Y43160D01*
G01X47050Y40050D02*
Y43160D01*
G54D13*
X29000Y23850D03*
Y30150D03*
X41000D03*
Y23850D03*
X35000Y30150D03*
Y23850D03*
X71000Y30150D03*
Y23850D03*
X65000D03*
Y30150D03*
X56600Y78950D03*
Y72650D03*
X46000Y72850D03*
Y79150D03*
G54D23*
G01X25450Y13200D02*
X21400Y17250D01*
Y34250D01*
X28150Y41000D01*
G01X25450Y13200D02*
Y5820D01*
X27570Y3700D01*
G01D02*
X31470Y7600D01*
X38600D01*
X39200Y7000D01*
X39400D01*
G01X28150Y62000D02*
X32230Y57920D01*
X40160D01*
G01X28150Y48000D02*
X28230Y48080D01*
X40160D01*
G01X43400Y46110D02*
X40160D01*
G01X31130Y52020D02*
X28150Y55000D01*
G01X31130Y52020D02*
X33100Y50050D01*
X40160D01*
G01X47050Y62840D02*
X47000Y62790D01*
Y60790D01*
X45810Y59600D01*
X44600D01*
X43600Y58600D01*
Y53000D01*
X42620Y52020D01*
X40160D01*
G01D02*
X31130D01*
G01X40160Y50050D02*
X40210Y50000D01*
X42400D01*
X43200Y49200D01*
Y46310D01*
X43400Y46110D01*
G01X28150Y41000D02*
X33150Y46000D01*
X40170D01*
X40200Y46030D01*
Y46070D01*
X40160Y46110D01*
G01X28150Y55000D02*
Y55700D01*
X21850Y62000D01*
G01X50980Y53980D02*
X50000Y53000D01*
G01X59840Y59890D02*
X59730Y60000D01*
X58000D01*
X56800Y58800D01*
Y47400D01*
X55510Y46110D01*
X47600D01*
G01X43400D02*
X47600D01*
G01X49020Y43160D02*
X49000Y43180D01*
Y44710D01*
X47600Y46110D01*
G01X47050Y62840D02*
Y71800D01*
X46000Y72850D01*
G01D02*
X46700D01*
G01X56600Y72650D02*
X52950Y69000D01*
Y62840D01*
G01X74650Y23850D02*
Y9960D01*
X74810Y9800D01*
G01D02*
Y3700D01*
G01X75010Y9600D02*
X74810Y9800D01*
G01X91450Y23800D02*
Y17200D01*
G01Y30400D02*
Y23800D01*
G01Y30400D02*
Y37450D01*
X99000Y45000D01*
Y61200D01*
X95500Y64700D01*
Y75480D01*
G01X91600Y11800D02*
Y17050D01*
X91450Y17200D01*
G01X92150Y84000D02*
X95500Y80650D01*
Y75480D01*
G54D14*
X32000Y24000D03*
X38000D03*
X39600Y11200D03*
X39400Y7000D03*
X19200Y44000D03*
Y52000D03*
Y58000D03*
X19800Y37000D03*
X28200Y66200D03*
X21800D03*
X42050Y79200D03*
X29800Y84200D03*
X50400Y10800D03*
X67200Y11000D03*
X53000Y23400D03*
X44200D03*
X43400Y16400D03*
X46400Y56600D03*
X53600D03*
X50000Y53200D03*
X46400Y49400D03*
X53600D03*
X59800Y43400D03*
X63400Y42800D03*
Y39200D03*
X71200Y62600D03*
X68800Y48000D03*
X62000Y65000D03*
X62400Y75600D03*
X71400Y67600D03*
X66400Y68400D03*
X59400Y78800D03*
X43000Y74200D03*
X74650Y23850D03*
X83200Y30400D03*
X79600Y23800D03*
X91600Y11800D03*
X100600Y17200D03*
Y30400D03*
Y23800D03*
X77200Y48600D03*
X94800Y59600D03*
X90000Y57200D03*
X86200Y35200D03*
Y39400D03*
X73000Y51800D03*
X95600Y53400D03*
X76600D03*
X81400Y84000D03*
X74000Y83000D03*
X73800Y76000D03*
X80000Y69600D03*
X76840D03*
G54D24*
G01X59400Y78800D02*
X56750D01*
X56600Y78950D01*
G01X46000Y72850D02*
X44350D01*
X43000Y74200D01*
G54D15*
X40160Y59890D03*
Y57920D03*
Y55950D03*
Y53980D03*
Y52020D03*
Y50050D03*
Y48080D03*
Y46110D03*
X59840D03*
Y48080D03*
Y50050D03*
Y52020D03*
Y53980D03*
Y55950D03*
Y57920D03*
Y59890D03*
G54D25*
G01X21850Y48000D02*
X14910D01*
G54D16*
X48020Y30800D03*
Y23200D03*
X57980Y30800D03*
Y23200D03*
G54D17*
X50000Y53000D03*
G54D18*
X43110Y43160D03*
X45080D03*
X47050D03*
X49020D03*
X50980D03*
X52950D03*
X54920D03*
X56890D03*
Y62840D03*
X54920D03*
X52950D03*
X50980D03*
X49020D03*
X47050D03*
X45080D03*
X43110D03*
G54D19*
X80500Y48520D03*
X85500D03*
X90500D03*
X95500D03*
Y75480D03*
X90500D03*
X85500D03*
X80500D03*
M02*
