G04 ================== begin FILE IDENTIFICATION RECORD ==================*
G04 Layout Name:  wee.brd*
G04 Film Name:    silktop*
G04 File Format:  Gerber RS274X*
G04 File Origin:  Cadence Allegro 16.5-S056*
G04 Origin Date:  Tue Dec 16 20:41:55 2014*
G04 *
G04 Layer:  MANUFACTURING/TOP_LOGO*
G04 Layer:  BOARD GEOMETRY/SILKSCREEN_TOP*
G04 Layer:  BOARD GEOMETRY/OUTLINE*
G04 Layer:  PACKAGE GEOMETRY/SILKSCREEN_TOP*
G04 *
G04 Offset:    (0.0 0.0)*
G04 Mirror:    No*
G04 Mode:      Positive*
G04 Rotation:  0*
G04 FullContactRelief:  No*
G04 UndefLineWidth:     6.0*
G04 ================== end FILE IDENTIFICATION RECORD ====================*
%FSLAX25Y25*MOIN*%
%IR0*IPPOS*OFA0.00000B0.00000*MIA0B0*SFA1.00000B1.00000*%
%ADD10C,.002*%
%ADD11C,.006*%
%ADD12C,.0098*%
%ADD13C,.0118*%
G75*
%LPD*%
G75*
G54D10*
G01X28600Y31000D02*
Y36600D01*
G01X28800Y30600D02*
Y36800D01*
G01X29000Y30400D02*
Y37000D01*
G01X29200Y30200D02*
Y37000D01*
G01X29400Y30000D02*
Y37200D01*
G01X29600Y30000D02*
Y37200D01*
G01X29800Y29800D02*
Y37200D01*
G01X30000Y29600D02*
Y33000D01*
G01X30200Y29600D02*
Y32600D01*
G01X30400Y29400D02*
Y32400D01*
G01X30600Y29200D02*
Y32200D01*
G01X30800Y29200D02*
Y32000D01*
G01X31000Y29200D02*
Y31800D01*
G01X31200Y29000D02*
Y31600D01*
G01X31400Y29000D02*
Y31600D01*
G01X31600Y29000D02*
Y31400D01*
G01X31800Y29000D02*
Y31400D01*
G01X32000Y28800D02*
Y31400D01*
G01X32200Y28800D02*
Y31400D01*
G01X32400Y28800D02*
Y31400D01*
G01X32600Y28800D02*
Y31400D01*
G01X32800Y28800D02*
Y31400D01*
G01X33000Y29000D02*
Y31600D01*
G01X33200Y29000D02*
Y31600D01*
G01X33400Y29000D02*
Y31800D01*
G01X33600Y29000D02*
Y32200D01*
G01X33800Y29000D02*
Y34000D01*
G01X34000Y29200D02*
Y34400D01*
G01X34200Y29200D02*
Y34600D01*
G01X34400Y29400D02*
Y34600D01*
G01X34600Y29400D02*
Y34600D01*
G01X34800Y29600D02*
Y34600D01*
G01X35000Y29800D02*
Y34600D01*
G01X35200Y30000D02*
Y34400D01*
G01X35400Y30200D02*
Y34400D01*
G01X35600Y30600D02*
Y34000D01*
G01X35800Y30800D02*
Y33800D01*
G01X27600Y33000D02*
Y35000D01*
G01Y42000D02*
Y43200D01*
G01Y49200D02*
Y52400D01*
G01X27800Y32400D02*
Y35600D01*
G01Y41600D02*
Y43600D01*
G01Y48800D02*
Y52800D01*
G01X28000Y31800D02*
Y36000D01*
G01Y41400D02*
Y43800D01*
G01Y48600D02*
Y53000D01*
G01X28200Y31600D02*
Y36400D01*
G01Y41200D02*
Y43800D01*
G01Y48400D02*
Y53000D01*
G01X28400Y31200D02*
Y36600D01*
G01Y41000D02*
Y44000D01*
G01Y48400D02*
Y53000D01*
G01X28600Y41000D02*
Y44000D01*
G01Y48200D02*
Y53000D01*
G01X28800Y40800D02*
Y44000D01*
G01Y48000D02*
Y53000D01*
G01X29000Y40800D02*
Y44000D01*
G01Y48000D02*
Y52800D01*
G01X29200Y40600D02*
Y44000D01*
G01Y47800D02*
Y52800D01*
G01X29400Y40600D02*
Y44000D01*
G01Y47800D02*
Y52400D01*
G01X29600Y40400D02*
Y44000D01*
G01Y47600D02*
Y52000D01*
G01X29800Y40400D02*
Y44000D01*
G01Y47600D02*
Y50200D01*
G01X30000Y34200D02*
Y37200D01*
G01Y40400D02*
Y44000D01*
G01Y47400D02*
Y50000D01*
G01X30200Y34600D02*
Y37400D01*
G01Y40200D02*
Y44000D01*
G01Y47200D02*
Y50000D01*
G01X30400Y34800D02*
Y37400D01*
G01Y40200D02*
Y44000D01*
G01Y47200D02*
Y49800D01*
G01X30600Y34800D02*
Y37400D01*
G01Y40000D02*
Y44000D01*
G01Y47000D02*
Y49600D01*
G01X30800Y35000D02*
Y37400D01*
G01Y40000D02*
Y44000D01*
G01Y47000D02*
Y49600D01*
G01X31000Y35000D02*
Y37400D01*
G01Y39800D02*
Y44000D01*
G01Y46800D02*
Y49400D01*
G01X31200Y35000D02*
Y37400D01*
G01Y39800D02*
Y44000D01*
G01Y46600D02*
Y49400D01*
G01X31400Y35000D02*
Y37400D01*
G01Y39600D02*
Y44000D01*
G01Y46600D02*
Y49200D01*
G01X31600Y35000D02*
Y37400D01*
G01Y39600D02*
Y44000D01*
G01Y46400D02*
Y49200D01*
G01X31800Y35000D02*
Y37400D01*
G01Y39400D02*
Y44000D01*
G01Y46400D02*
Y49000D01*
G01X32000Y35000D02*
Y37400D01*
G01Y39400D02*
Y44000D01*
G01Y46200D02*
Y48800D01*
G01X32200Y35000D02*
Y37400D01*
G01Y39200D02*
Y44000D01*
G01Y46200D02*
Y48800D01*
G01X32400Y35000D02*
Y37400D01*
G01Y39200D02*
Y44000D01*
G01Y46000D02*
Y48600D01*
G01X32600Y35000D02*
Y37400D01*
G01Y39000D02*
Y44000D01*
G01Y45800D02*
Y48600D01*
G01X32800Y35000D02*
Y37400D01*
G01Y39000D02*
Y41400D01*
G01Y41600D02*
Y44000D01*
G01Y45800D02*
Y48400D01*
G01X33000Y35000D02*
Y37400D01*
G01Y38800D02*
Y41400D01*
G01Y41600D02*
Y44000D01*
G01Y45600D02*
Y48200D01*
G01X33200Y35000D02*
Y37400D01*
G01Y38800D02*
Y41200D01*
G01Y41600D02*
Y44000D01*
G01Y45600D02*
Y48200D01*
G01Y53800D02*
Y55400D01*
G01X33400Y35200D02*
Y37400D01*
G01Y38800D02*
Y41200D01*
G01Y41600D02*
Y44000D01*
G01Y45400D02*
Y48000D01*
G01Y53200D02*
Y56000D01*
G01Y60800D02*
Y63600D01*
G01X33600Y35200D02*
Y37400D01*
G01Y38600D02*
Y41000D01*
G01Y41600D02*
Y44000D01*
G01Y45400D02*
Y48000D01*
G01Y52800D02*
Y56400D01*
G01Y60400D02*
Y64000D01*
G01X33800Y35200D02*
Y37400D01*
G01Y38600D02*
Y41000D01*
G01Y41600D02*
Y44000D01*
G01Y45200D02*
Y47800D01*
G01Y52400D02*
Y56600D01*
G01Y60000D02*
Y64200D01*
G01X34000Y35200D02*
Y37400D01*
G01Y38400D02*
Y40800D01*
G01Y41600D02*
Y44000D01*
G01Y45000D02*
Y47800D01*
G01Y52200D02*
Y56800D01*
G01Y59800D02*
Y64400D01*
G01X34200Y35200D02*
Y37400D01*
G01Y38400D02*
Y40800D01*
G01Y41600D02*
Y44000D01*
G01Y45000D02*
Y47600D01*
G01Y52000D02*
Y57000D01*
G01Y59600D02*
Y64600D01*
G01X34400Y35200D02*
Y37400D01*
G01Y38200D02*
Y40600D01*
G01Y41600D02*
Y44000D01*
G01Y44800D02*
Y47400D01*
G01Y51800D02*
Y57200D01*
G01Y59400D02*
Y64800D01*
G01X34600Y35200D02*
Y37400D01*
G01Y38200D02*
Y40600D01*
G01Y41600D02*
Y44000D01*
G01Y44800D02*
Y47400D01*
G01Y51600D02*
Y57200D01*
G01Y59200D02*
Y64800D01*
G01X34800Y35200D02*
Y37600D01*
G01Y38000D02*
Y40400D01*
G01Y41600D02*
Y43800D01*
G01Y44600D02*
Y47200D01*
G01Y51400D02*
Y57200D01*
G01Y59000D02*
Y64800D01*
G01X35000Y35200D02*
Y37600D01*
G01Y38000D02*
Y40400D01*
G01Y41600D02*
Y43800D01*
G01Y44400D02*
Y47200D01*
G01Y51200D02*
Y57200D01*
G01Y58800D02*
Y64800D01*
G01X35200Y35200D02*
Y37600D01*
G01Y37800D02*
Y40400D01*
G01Y41600D02*
Y43800D01*
G01Y44400D02*
Y47000D01*
G01Y51200D02*
Y53800D01*
G01Y55000D02*
Y57400D01*
G01Y58800D02*
Y61400D01*
G01X35400Y35200D02*
Y37600D01*
G01Y37800D02*
Y40200D01*
G01Y41600D02*
Y43800D01*
G01Y44200D02*
Y46800D01*
G01Y51000D02*
Y53400D01*
G01Y55200D02*
Y57400D01*
G01Y58600D02*
Y61000D01*
G01X35600Y35200D02*
Y40200D01*
G01Y41600D02*
Y43800D01*
G01Y44200D02*
Y46800D01*
G01Y51000D02*
Y53200D01*
G01Y55000D02*
Y57200D01*
G01Y58600D02*
Y60800D01*
G01X35800Y35200D02*
Y40000D01*
G01Y41600D02*
Y46600D01*
G01Y50800D02*
Y57200D01*
G01Y58400D02*
Y64800D01*
G01X36000Y31400D02*
Y33200D01*
G01Y35200D02*
Y40000D01*
G01Y41600D02*
Y46600D01*
G01Y50800D02*
Y57200D01*
G01Y58400D02*
Y64800D01*
G01X36200Y35200D02*
Y39800D01*
G01Y41600D02*
Y46400D01*
G01Y50600D02*
Y57200D01*
G01Y58200D02*
Y64800D01*
G01X36400Y35200D02*
Y39800D01*
G01Y41600D02*
Y46400D01*
G01Y50600D02*
Y57000D01*
G01Y58200D02*
Y64600D01*
G01X36600Y35200D02*
Y39600D01*
G01Y41600D02*
Y46200D01*
G01Y50600D02*
Y57000D01*
G01Y58200D02*
Y64600D01*
G01X36800Y35200D02*
Y39600D01*
G01Y41600D02*
Y46000D01*
G01Y50600D02*
Y56800D01*
G01Y58200D02*
Y64400D01*
G01X37000Y35200D02*
Y39400D01*
G01Y41600D02*
Y46000D01*
G01Y50600D02*
Y56600D01*
G01Y58200D02*
Y64200D01*
G01X37200Y35200D02*
Y39400D01*
G01Y41600D02*
Y45800D01*
G01Y50600D02*
Y56200D01*
G01Y58200D02*
Y63800D01*
G01X37400Y35200D02*
Y39200D01*
G01Y41400D02*
Y45800D01*
G01Y50600D02*
Y55600D01*
G01Y58200D02*
Y63200D01*
G01X37600Y35200D02*
Y39200D01*
G01Y41400D02*
Y45600D01*
G01Y50600D02*
Y52800D01*
G01Y58200D02*
Y60400D01*
G01X37800Y35200D02*
Y39000D01*
G01Y41400D02*
Y45400D01*
G01Y50600D02*
Y52800D01*
G01Y58200D02*
Y60400D01*
G01X38000Y35200D02*
Y39000D01*
G01Y41400D02*
Y45400D01*
G01Y50600D02*
Y53000D01*
G01Y58200D02*
Y60600D01*
G01X38200Y35200D02*
Y38800D01*
G01Y41400D02*
Y45200D01*
G01Y50600D02*
Y57200D01*
G01Y58200D02*
Y64800D01*
G01X38400Y35200D02*
Y38800D01*
G01Y41400D02*
Y45200D01*
G01Y50600D02*
Y57600D01*
G01Y58200D02*
Y65200D01*
G01X38600Y35200D02*
Y38800D01*
G01Y41400D02*
Y45000D01*
G01Y50600D02*
Y57600D01*
G01Y58200D02*
Y65200D01*
G01X38800Y35200D02*
Y38600D01*
G01Y41400D02*
Y45000D01*
G01Y50800D02*
Y57800D01*
G01Y58400D02*
Y65400D01*
G01X39000Y35200D02*
Y38600D01*
G01Y41400D02*
Y44800D01*
G01Y50800D02*
Y57800D01*
G01Y58400D02*
Y65400D01*
G01X39200Y35200D02*
Y38400D01*
G01Y41400D02*
Y44600D01*
G01Y51000D02*
Y57800D01*
G01Y58600D02*
Y65400D01*
G01X39400Y35200D02*
Y38400D01*
G01Y41400D02*
Y44600D01*
G01Y51200D02*
Y57600D01*
G01Y58800D02*
Y65200D01*
G01X39600Y35400D02*
Y38200D01*
G01Y41400D02*
Y44400D01*
G01Y51400D02*
Y57600D01*
G01Y59000D02*
Y65200D01*
G01X39800Y35400D02*
Y38200D01*
G01Y41600D02*
Y44400D01*
G01Y51600D02*
Y57400D01*
G01Y59200D02*
Y65000D01*
G01X40000Y35400D02*
Y38000D01*
G01Y41600D02*
Y44200D01*
G01Y52000D02*
Y57200D01*
G01Y59600D02*
Y64800D01*
G01X40200Y35600D02*
Y37800D01*
G01Y41800D02*
Y44000D01*
G01Y52600D02*
Y56800D01*
G01Y60200D02*
Y64400D01*
G01X40400Y35800D02*
Y37600D01*
G01Y42000D02*
Y43800D01*
G01X40600Y36200D02*
Y37200D01*
G01Y42200D02*
Y43400D01*
G01X33200Y61400D02*
Y63000D01*
G01X35200Y62600D02*
Y65000D01*
G01X35400Y62800D02*
Y65000D01*
G01X35600Y62600D02*
Y64800D01*
G01X47200Y20600D02*
Y21400D01*
G01X47400Y20400D02*
Y21600D01*
G01Y23400D02*
Y24200D01*
G01X47600Y20400D02*
Y21600D01*
G01Y23200D02*
Y24200D01*
G01X47800Y20400D02*
Y21600D01*
G01Y23200D02*
Y24200D01*
G01X48000Y20400D02*
Y21600D01*
G01Y23000D02*
Y24200D01*
G01X48200Y20600D02*
Y21400D01*
G01Y23000D02*
Y24200D01*
G01X48400Y22800D02*
Y24000D01*
G01X48600Y20400D02*
Y21000D01*
G01Y22200D02*
Y24600D01*
G01Y26000D02*
Y27200D01*
G01Y29800D02*
Y30800D01*
G01X48800Y20200D02*
Y21000D01*
G01Y22000D02*
Y24600D01*
G01Y25400D02*
Y27400D01*
G01Y29400D02*
Y32200D01*
G01X49000Y20000D02*
Y21200D01*
G01Y21800D02*
Y24800D01*
G01Y25200D02*
Y27600D01*
G01Y29000D02*
Y32200D01*
G01X49200Y20000D02*
Y21000D01*
G01Y21800D02*
Y24600D01*
G01Y25000D02*
Y27800D01*
G01Y28800D02*
Y32200D01*
G01X49400Y19800D02*
Y21000D01*
G01Y22000D02*
Y24400D01*
G01Y24800D02*
Y27800D01*
G01Y28800D02*
Y30000D01*
G01Y30600D02*
Y32000D01*
G01X49600Y19800D02*
Y21000D01*
G01Y22400D02*
Y23600D01*
G01Y24800D02*
Y26000D01*
G01Y26800D02*
Y27800D01*
G01Y28600D02*
Y29800D01*
G01Y30800D02*
Y32000D01*
G01X49800Y19600D02*
Y20800D01*
G01Y22400D02*
Y23400D01*
G01Y24600D02*
Y25800D01*
G01Y26800D02*
Y27800D01*
G01Y28400D02*
Y29600D01*
G01Y30600D02*
Y32000D01*
G01X50000Y19600D02*
Y20800D01*
G01Y22200D02*
Y23400D01*
G01Y24600D02*
Y27800D01*
G01Y28400D02*
Y29400D01*
G01Y30600D02*
Y31800D01*
G01X50200Y19600D02*
Y20600D01*
G01Y22200D02*
Y23200D01*
G01Y24600D02*
Y27600D01*
G01Y28400D02*
Y29400D01*
G01Y30600D02*
Y31800D01*
G01X50400Y19400D02*
Y20600D01*
G01Y22000D02*
Y23200D01*
G01Y24400D02*
Y27600D01*
G01Y28200D02*
Y29400D01*
G01Y30400D02*
Y31600D01*
G01X50600Y19400D02*
Y20600D01*
G01Y22000D02*
Y23200D01*
G01Y24400D02*
Y27200D01*
G01Y28200D02*
Y29400D01*
G01Y30400D02*
Y31600D01*
G01X50800Y19200D02*
Y20400D01*
G01Y22000D02*
Y23000D01*
G01Y24400D02*
Y25600D01*
G01Y28200D02*
Y29400D01*
G01Y30400D02*
Y31600D01*
G01X51000Y19200D02*
Y20400D01*
G01Y21800D02*
Y23000D01*
G01Y24400D02*
Y25600D01*
G01Y28200D02*
Y29400D01*
G01Y30200D02*
Y31400D01*
G01X51200Y19200D02*
Y21200D01*
G01Y21800D02*
Y24000D01*
G01Y24600D02*
Y28000D01*
G01Y28200D02*
Y32400D01*
G01X51400Y19000D02*
Y21400D01*
G01Y21600D02*
Y24000D01*
G01Y24600D02*
Y28000D01*
G01Y28400D02*
Y32600D01*
G01X51600Y19000D02*
Y21400D01*
G01Y21800D02*
Y24000D01*
G01Y24800D02*
Y28000D01*
G01Y28400D02*
Y32600D01*
G01X51800Y19200D02*
Y21400D01*
G01Y21800D02*
Y24000D01*
G01Y25000D02*
Y28000D01*
G01Y28600D02*
Y32400D01*
G01X52000Y19400D02*
Y21200D01*
G01Y22000D02*
Y23800D01*
G01Y25200D02*
Y27800D01*
G01Y29000D02*
Y30200D01*
G01Y30800D02*
Y32200D01*
G01X45800Y37000D02*
Y37600D01*
G01Y52400D02*
Y53000D01*
G01X46000Y36800D02*
Y37800D01*
G01Y52200D02*
Y53200D01*
G01X46200Y36600D02*
Y37800D01*
G01Y52000D02*
Y53200D01*
G01X46400Y36600D02*
Y37800D01*
G01Y52000D02*
Y53200D01*
G01X46600Y36600D02*
Y37600D01*
G01Y52000D02*
Y53000D01*
G01X46800Y36400D02*
Y37600D01*
G01Y51800D02*
Y53000D01*
G01X47000Y36400D02*
Y37600D01*
G01Y51800D02*
Y53000D01*
G01X47200Y36200D02*
Y37400D01*
G01Y51600D02*
Y52800D01*
G01Y54200D02*
Y55000D01*
G01X47400Y36200D02*
Y37400D01*
G01Y42400D02*
Y43200D01*
G01Y51600D02*
Y52800D01*
G01Y54000D02*
Y55200D01*
G01X47600Y36000D02*
Y37200D01*
G01Y42200D02*
Y43200D01*
G01Y51400D02*
Y52600D01*
G01Y54000D02*
Y55200D01*
G01X47800Y36000D02*
Y37200D01*
G01Y42200D02*
Y43200D01*
G01Y51400D02*
Y52600D01*
G01Y54000D02*
Y55200D01*
G01X48000Y36000D02*
Y37200D01*
G01Y38600D02*
Y39200D01*
G01Y42000D02*
Y43200D01*
G01Y51400D02*
Y52600D01*
G01Y54000D02*
Y55200D01*
G01X48200Y35800D02*
Y37000D01*
G01Y38600D02*
Y39400D01*
G01Y42000D02*
Y43200D01*
G01Y51200D02*
Y52400D01*
G01Y54200D02*
Y55000D01*
G01X48400Y35800D02*
Y37000D01*
G01Y38400D02*
Y39400D01*
G01Y41800D02*
Y43000D01*
G01Y51200D02*
Y52400D01*
G01X48600Y31400D02*
Y32000D01*
G01Y34200D02*
Y35200D01*
G01Y35600D02*
Y36800D01*
G01Y38400D02*
Y39400D01*
G01Y41200D02*
Y43600D01*
G01Y44600D02*
Y45200D01*
G01Y46800D02*
Y47400D01*
G01Y49600D02*
Y50600D01*
G01Y51000D02*
Y52200D01*
G01Y54000D02*
Y54600D01*
G01Y56800D02*
Y58000D01*
G01X48800Y33800D02*
Y36800D01*
G01Y38200D02*
Y39400D01*
G01Y41000D02*
Y43600D01*
G01Y44400D02*
Y45400D01*
G01Y46600D02*
Y47600D01*
G01Y49200D02*
Y52200D01*
G01Y53800D02*
Y54600D01*
G01Y56400D02*
Y58400D01*
G01X49000Y33400D02*
Y36800D01*
G01Y38200D02*
Y39400D01*
G01Y40800D02*
Y43800D01*
G01Y44200D02*
Y45400D01*
G01Y46400D02*
Y47600D01*
G01Y48800D02*
Y52200D01*
G01Y53600D02*
Y54800D01*
G01Y56000D02*
Y58600D01*
G01X49200Y33400D02*
Y36600D01*
G01Y38000D02*
Y39600D01*
G01Y40800D02*
Y43600D01*
G01Y44200D02*
Y45400D01*
G01Y46400D02*
Y47400D01*
G01Y48800D02*
Y52000D01*
G01Y53600D02*
Y54600D01*
G01Y55800D02*
Y58800D01*
G01X49400Y33200D02*
Y36600D01*
G01Y38000D02*
Y39600D01*
G01Y41000D02*
Y43400D01*
G01Y44200D02*
Y45200D01*
G01Y46200D02*
Y47400D01*
G01Y48600D02*
Y52000D01*
G01Y53400D02*
Y54600D01*
G01Y55600D02*
Y58800D01*
G01X49600Y33000D02*
Y34400D01*
G01Y35000D02*
Y36400D01*
G01Y37800D02*
Y39800D01*
G01Y41400D02*
Y42600D01*
G01Y44000D02*
Y45200D01*
G01Y46200D02*
Y47400D01*
G01Y48400D02*
Y49800D01*
G01Y50400D02*
Y51800D01*
G01Y53400D02*
Y54600D01*
G01Y55600D02*
Y57000D01*
G01Y57600D02*
Y59000D01*
G01X49800Y33000D02*
Y34200D01*
G01Y35200D02*
Y36400D01*
G01Y37800D02*
Y40000D01*
G01Y41400D02*
Y42400D01*
G01Y44000D02*
Y45000D01*
G01Y46000D02*
Y47200D01*
G01Y48400D02*
Y49600D01*
G01Y50600D02*
Y51800D01*
G01Y53200D02*
Y54400D01*
G01Y55400D02*
Y56600D01*
G01Y57800D02*
Y59000D01*
G01X50000Y32800D02*
Y34000D01*
G01Y35200D02*
Y36200D01*
G01Y37600D02*
Y38800D01*
G01Y39000D02*
Y40000D01*
G01Y41200D02*
Y42400D01*
G01Y43800D02*
Y45000D01*
G01Y46000D02*
Y47200D01*
G01Y48200D02*
Y49400D01*
G01Y50600D02*
Y51600D01*
G01Y53200D02*
Y54400D01*
G01Y55400D02*
Y56600D01*
G01Y57800D02*
Y59000D01*
G01X50200Y32800D02*
Y33800D01*
G01Y35000D02*
Y36200D01*
G01Y37800D02*
Y38600D01*
G01Y39000D02*
Y40200D01*
G01Y41200D02*
Y42200D01*
G01Y43800D02*
Y45000D01*
G01Y46000D02*
Y47000D01*
G01Y48200D02*
Y49200D01*
G01Y50400D02*
Y51600D01*
G01Y53200D02*
Y54200D01*
G01Y55400D02*
Y56400D01*
G01Y57800D02*
Y59000D01*
G01X50400Y32800D02*
Y33800D01*
G01Y35000D02*
Y36200D01*
G01Y37800D02*
Y38400D01*
G01Y39200D02*
Y40200D01*
G01Y41000D02*
Y42200D01*
G01Y43600D02*
Y44800D01*
G01Y45800D02*
Y47000D01*
G01Y48200D02*
Y49200D01*
G01Y50400D02*
Y51600D01*
G01Y53000D02*
Y54200D01*
G01Y55200D02*
Y56400D01*
G01Y57800D02*
Y59000D01*
G01X50600Y32600D02*
Y33800D01*
G01Y34800D02*
Y36000D01*
G01Y39200D02*
Y40200D01*
G01Y41000D02*
Y42200D01*
G01Y43600D02*
Y44800D01*
G01Y45800D02*
Y47000D01*
G01Y48000D02*
Y49200D01*
G01Y50200D02*
Y51400D01*
G01Y53000D02*
Y54200D01*
G01Y55200D02*
Y56400D01*
G01Y57800D02*
Y58800D01*
G01X50800Y32600D02*
Y33800D01*
G01Y34800D02*
Y36000D01*
G01Y39200D02*
Y40200D01*
G01Y41000D02*
Y42000D01*
G01Y43600D02*
Y44600D01*
G01Y45600D02*
Y46800D01*
G01Y48000D02*
Y49200D01*
G01Y50200D02*
Y51400D01*
G01Y52800D02*
Y54000D01*
G01Y55200D02*
Y56400D01*
G01Y57600D02*
Y58800D01*
G01X51000Y32600D02*
Y33800D01*
G01Y34600D02*
Y35800D01*
G01Y39000D02*
Y40200D01*
G01Y40800D02*
Y42000D01*
G01Y43400D02*
Y44800D01*
G01Y45400D02*
Y46800D01*
G01Y48000D02*
Y49200D01*
G01Y50000D02*
Y51200D01*
G01Y52800D02*
Y54000D01*
G01Y55400D02*
Y56600D01*
G01Y57400D02*
Y58800D01*
G01Y59800D02*
Y60600D01*
G01X51200Y32800D02*
Y36800D01*
G01Y37400D02*
Y40200D01*
G01Y40800D02*
Y43000D01*
G01Y43400D02*
Y47800D01*
G01Y48200D02*
Y52200D01*
G01Y52800D02*
Y54800D01*
G01Y55400D02*
Y58600D01*
G01Y59600D02*
Y60800D01*
G01X51400Y32800D02*
Y37000D01*
G01Y37200D02*
Y40000D01*
G01Y40600D02*
Y43000D01*
G01Y43400D02*
Y47800D01*
G01Y48200D02*
Y52400D01*
G01Y52600D02*
Y55000D01*
G01Y55400D02*
Y58600D01*
G01Y59600D02*
Y60800D01*
G01X51600Y32800D02*
Y37000D01*
G01Y37200D02*
Y40000D01*
G01Y40800D02*
Y43000D01*
G01Y43600D02*
Y47800D01*
G01Y48200D02*
Y52400D01*
G01Y52600D02*
Y55000D01*
G01Y55600D02*
Y58400D01*
G01Y59600D02*
Y60800D01*
G01X51800Y33000D02*
Y36800D01*
G01Y37200D02*
Y39800D01*
G01Y40800D02*
Y43000D01*
G01Y43600D02*
Y47800D01*
G01Y48400D02*
Y52200D01*
G01Y52800D02*
Y55000D01*
G01Y55800D02*
Y58200D01*
G01Y59600D02*
Y60800D01*
G01X52000Y33400D02*
Y34800D01*
G01Y35200D02*
Y36600D01*
G01Y37400D02*
Y39400D01*
G01Y41000D02*
Y42800D01*
G01Y44000D02*
Y45400D01*
G01Y46000D02*
Y47600D01*
G01Y48800D02*
Y50200D01*
G01Y50600D02*
Y52000D01*
G01Y53000D02*
Y54800D01*
G01Y56000D02*
Y57800D01*
G01Y59800D02*
Y60600D01*
G01X48600Y63000D02*
Y64200D01*
G01Y66800D02*
Y68000D01*
G01Y70400D02*
Y71200D01*
G01Y71800D02*
Y72800D01*
G01Y73800D02*
Y75000D01*
G01X48800Y62600D02*
Y64600D01*
G01Y66400D02*
Y68400D01*
G01Y70400D02*
Y71200D01*
G01Y71400D02*
Y73000D01*
G01Y73600D02*
Y75200D01*
G01X49000Y62400D02*
Y64800D01*
G01Y66000D02*
Y68600D01*
G01Y70200D02*
Y75400D01*
G01X49200Y62200D02*
Y64800D01*
G01Y65800D02*
Y68800D01*
G01Y70200D02*
Y75400D01*
G01X49400Y62000D02*
Y64800D01*
G01Y65600D02*
Y68800D01*
G01Y70000D02*
Y75600D01*
G01X49600Y62000D02*
Y63200D01*
G01Y63800D02*
Y64800D01*
G01Y65600D02*
Y67000D01*
G01Y67600D02*
Y69000D01*
G01Y70000D02*
Y71400D01*
G01Y72000D02*
Y73600D01*
G01Y74200D02*
Y75400D01*
G01X49800Y61800D02*
Y63000D01*
G01Y63800D02*
Y64800D01*
G01Y65400D02*
Y66600D01*
G01Y67800D02*
Y69000D01*
G01Y69800D02*
Y71200D01*
G01Y72000D02*
Y73400D01*
G01Y74200D02*
Y75400D01*
G01X50000Y61800D02*
Y62800D01*
G01Y63800D02*
Y64800D01*
G01Y65400D02*
Y66600D01*
G01Y67800D02*
Y69000D01*
G01Y69800D02*
Y71000D01*
G01Y72000D02*
Y73200D01*
G01Y74200D02*
Y75400D01*
G01X50200Y61600D02*
Y62800D01*
G01Y64000D02*
Y64600D01*
G01Y65400D02*
Y66400D01*
G01Y67800D02*
Y69000D01*
G01Y69800D02*
Y70800D01*
G01Y71800D02*
Y73000D01*
G01Y74200D02*
Y75200D01*
G01X50400Y61600D02*
Y62800D01*
G01Y65200D02*
Y66400D01*
G01Y67800D02*
Y69000D01*
G01Y69600D02*
Y70800D01*
G01Y71800D02*
Y73000D01*
G01Y74000D02*
Y75200D01*
G01X50600Y61600D02*
Y62800D01*
G01Y65200D02*
Y66400D01*
G01Y67800D02*
Y68800D01*
G01Y69600D02*
Y70800D01*
G01Y71800D02*
Y72800D01*
G01Y74000D02*
Y75000D01*
G01X50800Y61600D02*
Y62800D01*
G01Y65200D02*
Y66400D01*
G01Y67600D02*
Y68800D01*
G01Y69400D02*
Y70600D01*
G01Y71600D02*
Y72800D01*
G01Y73800D02*
Y75000D01*
G01X51000Y61600D02*
Y63000D01*
G01Y65400D02*
Y66600D01*
G01Y67400D02*
Y68800D01*
G01Y69400D02*
Y70600D01*
G01Y71600D02*
Y72800D01*
G01Y73800D02*
Y75000D01*
G01X51200Y61800D02*
Y65000D01*
G01Y65400D02*
Y68600D01*
G01Y69400D02*
Y70400D01*
G01Y71400D02*
Y72600D01*
G01Y73600D02*
Y75800D01*
G01X51400Y61800D02*
Y65000D01*
G01Y65400D02*
Y68600D01*
G01Y69200D02*
Y70400D01*
G01Y71400D02*
Y72600D01*
G01Y73600D02*
Y76000D01*
G01X51600Y62000D02*
Y65200D01*
G01Y65600D02*
Y68400D01*
G01Y69200D02*
Y70200D01*
G01Y71400D02*
Y72400D01*
G01Y73600D02*
Y76000D01*
G01X51800Y62200D02*
Y65000D01*
G01Y65800D02*
Y68200D01*
G01Y69200D02*
Y70200D01*
G01Y71400D02*
Y72400D01*
G01Y73600D02*
Y76000D01*
G01X52000Y62400D02*
Y64800D01*
G01Y66000D02*
Y67800D01*
G01Y69400D02*
Y70000D01*
G01Y71400D02*
Y72200D01*
G01Y73800D02*
Y75800D01*
G54D11*
G01X77380Y15400D02*
Y18500D01*
X78300D01*
X78610Y18340D01*
X78840Y17980D01*
X78920Y17570D01*
X78840Y17160D01*
X78650Y16850D01*
X78300Y16690D01*
X77380D01*
G01X80100Y18500D02*
X80640Y15400D01*
X81250Y18500D01*
X81860Y15400D01*
X82400Y18500D01*
G01X83580Y15400D02*
Y18500D01*
X84540D01*
X84850Y18340D01*
X85040Y18140D01*
X85120Y17720D01*
X85040Y17310D01*
X84810Y17050D01*
X84540Y16900D01*
X83580D01*
G01X84540D02*
X85120Y15400D01*
G01X80050Y25470D02*
Y22370D01*
G01X79170Y25470D02*
X80930D01*
G01X82340Y22370D02*
X83960Y25470D01*
G01X82340D02*
X83960Y22370D01*
G01X79480Y28570D02*
Y31670D01*
X80440D01*
X80750Y31510D01*
X80940Y31310D01*
X81020Y30890D01*
X80940Y30480D01*
X80710Y30220D01*
X80440Y30070D01*
X79480D01*
G01X80440D02*
X81020Y28570D01*
G01X82540D02*
X84160Y31670D01*
G01X82540D02*
X84160Y28570D01*
G01X79540Y45600D02*
X82640Y46140D01*
X79540Y46750D01*
X82640Y47360D01*
X79540Y47900D01*
G01X82640Y49850D02*
X82590Y49540D01*
X82380Y49280D01*
X82070Y49040D01*
X81710Y48890D01*
X81300Y48810D01*
X80880D01*
X80470Y48890D01*
X80110Y49040D01*
X79800Y49280D01*
X79590Y49540D01*
X79540Y49850D01*
X79590Y50160D01*
X79800Y50420D01*
X80110Y50660D01*
X80470Y50810D01*
X80880Y50890D01*
X81300D01*
X81710Y50810D01*
X82070Y50660D01*
X82380Y50420D01*
X82590Y50160D01*
X82640Y49850D01*
G01Y52180D02*
X79540D01*
Y53140D01*
X79700Y53450D01*
X79900Y53640D01*
X80320Y53720D01*
X80730Y53640D01*
X80990Y53410D01*
X81140Y53140D01*
Y52180D01*
G01Y53140D02*
X82640Y53720D01*
G01Y55210D02*
X79540D01*
G01Y56660D02*
X81450Y55210D01*
G01X82640Y56890D02*
X80570Y55860D01*
G01X82440Y67120D02*
X79340D01*
Y68580D01*
G01X80840Y68040D02*
Y67120D01*
G01X79340Y69800D02*
X82440Y70340D01*
X79340Y70950D01*
X82440Y71560D01*
X79340Y72100D01*
G01X16000Y0D02*
X0Y16000D01*
Y78000D01*
X16000Y94000D01*
X103000D01*
Y0D01*
X16000D01*
G01X101710Y72090D02*
Y45320D01*
X91080D01*
Y72090D01*
X101710D01*
G01X107620Y57130D02*
Y52010D01*
X101710D01*
Y57130D01*
X107620D01*
G54D12*
G01X88200Y23800D02*
G03I-490J0D01*
G01Y30400D02*
G03I-490J0D01*
G01Y17200D02*
G03I-490J0D01*
G54D13*
G01X102370Y94250D02*
X15760D01*
X10Y78500D01*
Y15510D01*
X15760Y-240D01*
X102370D01*
Y94250D01*
G01X23630Y-240D02*
Y7640D01*
X102370D01*
G01X23630Y94250D02*
Y86380D01*
X102370D01*
M02*
